<?xml version="1.0" encoding="UTF-8" standalone="no"?><svg xmlns="http://www.w3.org/2000/svg" xmlns:xlink="http://www.w3.org/1999/xlink" contentStyleType="text/css" height="718.2px" preserveAspectRatio="none" style="width:480px;height:718px;background:#FFFFFF;" version="1.1" viewBox="0 0 480 718" width="480.6px" zoomAndPan="magnify"><defs/><g><!--class user--><g id="elem_user"><rect codeLine="1" fill="#F1F1F1" height="162.8719" id="user" rx="1.5" ry="1.5" style="stroke:#181818;stroke-width:0.3;" width="45" x="192.6" y="4.2"/><ellipse cx="205.65" cy="13.8" fill="#ADD1B2" rx="6.6" ry="6.6" style="stroke:#181818;stroke-width:0.6;"/><path d="M207.3094,11.325 Q207.4031,11.1938 207.5156,11.1281 Q207.6281,11.0625 207.7594,11.0625 Q207.9844,11.0625 208.125,11.2219 Q208.2656,11.3719 208.2656,11.7375 L208.2656,12.6094 Q208.2656,12.975 208.125,13.1344 Q207.9844,13.2938 207.7594,13.2938 Q207.5531,13.2938 207.4313,13.1719 Q207.3094,13.0594 207.2438,12.75 Q207.2156,12.5344 207.1031,12.4219 Q206.9063,12.1969 206.5406,12.0656 Q206.175,11.9344 205.8,11.9344 Q205.3406,11.9344 204.9562,12.1313 Q204.5812,12.3281 204.2813,12.7781 Q203.9906,13.2281 203.9906,13.8469 L203.9906,14.5031 Q203.9906,15.2437 204.525,15.7406 Q205.0594,16.2281 206.0156,16.2281 Q206.5781,16.2281 206.9719,16.0781 Q207.2062,15.9844 207.4594,15.7219 Q207.6188,15.5625 207.7031,15.5156 Q207.7969,15.4688 207.9188,15.4688 Q208.1156,15.4688 208.2656,15.6281 Q208.425,15.7781 208.425,15.9844 Q208.425,16.1906 208.2188,16.4344 Q207.9188,16.7813 207.4406,16.9781 Q206.7938,17.25 206.0156,17.25 Q205.1063,17.25 204.3844,16.875 Q203.7938,16.575 203.3813,15.9375 Q202.9688,15.2906 202.9688,14.5219 L202.9688,13.8281 Q202.9688,13.0313 203.3344,12.3469 Q203.7094,11.6531 204.3656,11.2875 Q205.0219,10.9125 205.7625,10.9125 Q206.2031,10.9125 206.5875,11.0156 Q206.9813,11.1094 207.3094,11.325 Z " fill="#000000"/><text fill="#000000" font-family="sans-serif" font-size="8.4" lengthAdjust="spacing" textLength="16.8" x="214.95" y="17.2781">user</text><line style="stroke:#181818;stroke-width:0.3;" x1="193.2" x2="237" y1="23.4" y2="23.4"/><text fill="#000000" font-family="sans-serif" font-size="8.4" lengthAdjust="spacing" textLength="6.6" x="196.2" y="34.8645">id</text><text fill="#000000" font-family="sans-serif" font-size="8.4" lengthAdjust="spacing" textLength="34.8" x="196.2" y="46.0371">firstname</text><text fill="#000000" font-family="sans-serif" font-size="8.4" lengthAdjust="spacing" textLength="34.2" x="196.2" y="57.2098">lastname</text><text fill="#000000" font-family="sans-serif" font-size="8.4" lengthAdjust="spacing" textLength="20.4" x="196.2" y="68.3824">Email</text><text fill="#000000" font-family="sans-serif" font-size="8.4" lengthAdjust="spacing" textLength="36" x="196.2" y="79.5551">password</text><text fill="#000000" font-family="sans-serif" font-size="8.4" lengthAdjust="spacing" textLength="21.6" x="196.2" y="90.7277">photo</text><text fill="#000000" font-family="sans-serif" font-size="8.4" lengthAdjust="spacing" textLength="24" x="196.2" y="101.9004">phone</text><text fill="#000000" font-family="sans-serif" font-size="8.4" lengthAdjust="spacing" textLength="31.2" x="196.2" y="113.073">Address</text><text fill="#000000" font-family="sans-serif" font-size="8.4" lengthAdjust="spacing" textLength="12.6" x="196.2" y="124.2457">city</text><text fill="#000000" font-family="sans-serif" font-size="8.4" lengthAdjust="spacing" textLength="28.2" x="196.2" y="135.4184">country</text><line style="stroke:#181818;stroke-width:0.3;" x1="193.2" x2="237" y1="139.9266" y2="139.9266"/><ellipse cx="199.2" cy="148.8129" fill="#84BE84" rx="1.8" ry="1.8" style="stroke:#038048;stroke-width:0.6;"/><text fill="#000000" font-family="sans-serif" font-size="8.4" lengthAdjust="spacing" textLength="24" x="204.6" y="151.391">login()</text><ellipse cx="199.2" cy="159.9855" fill="#84BE84" rx="1.8" ry="1.8" style="stroke:#038048;stroke-width:0.6;"/><text fill="#000000" font-family="sans-serif" font-size="8.4" lengthAdjust="spacing" textLength="29.4" x="204.6" y="162.5637">logout()</text></g><!--class student--><g id="elem_student"><rect codeLine="16" fill="#F1F1F1" height="28.8" id="student" rx="1.5" ry="1.5" style="stroke:#181818;stroke-width:0.3;" width="47.4" x="136.2" y="236.4"/><ellipse cx="145.2" cy="246" fill="#ADD1B2" rx="6.6" ry="6.6" style="stroke:#181818;stroke-width:0.6;"/><path d="M146.8594,243.525 Q146.9531,243.3937 147.0656,243.3281 Q147.1781,243.2625 147.3094,243.2625 Q147.5344,243.2625 147.675,243.4219 Q147.8156,243.5719 147.8156,243.9375 L147.8156,244.8094 Q147.8156,245.175 147.675,245.3344 Q147.5344,245.4937 147.3094,245.4937 Q147.1031,245.4937 146.9813,245.3719 Q146.8594,245.2594 146.7938,244.95 Q146.7656,244.7344 146.6531,244.6219 Q146.4562,244.3969 146.0906,244.2656 Q145.725,244.1344 145.35,244.1344 Q144.8906,244.1344 144.5063,244.3312 Q144.1313,244.5281 143.8312,244.9781 Q143.5406,245.4281 143.5406,246.0469 L143.5406,246.7031 Q143.5406,247.4438 144.075,247.9406 Q144.6094,248.4281 145.5656,248.4281 Q146.1281,248.4281 146.5219,248.2781 Q146.7563,248.1844 147.0094,247.9219 Q147.1688,247.7625 147.2531,247.7156 Q147.3469,247.6688 147.4688,247.6688 Q147.6656,247.6688 147.8156,247.8281 Q147.975,247.9781 147.975,248.1844 Q147.975,248.3906 147.7687,248.6344 Q147.4688,248.9813 146.9906,249.1781 Q146.3438,249.45 145.5656,249.45 Q144.6563,249.45 143.9344,249.075 Q143.3438,248.775 142.9313,248.1375 Q142.5187,247.4906 142.5187,246.7219 L142.5187,246.0281 Q142.5187,245.2313 142.8844,244.5469 Q143.2594,243.8531 143.9156,243.4875 Q144.5719,243.1125 145.3125,243.1125 Q145.7531,243.1125 146.1375,243.2156 Q146.5313,243.3094 146.8594,243.525 Z " fill="#000000"/><text fill="#000000" font-family="sans-serif" font-size="8.4" lengthAdjust="spacing" textLength="28.2" x="153.6" y="249.4781">student</text><line style="stroke:#181818;stroke-width:0.3;" x1="136.8" x2="183" y1="255.6" y2="255.6"/><line style="stroke:#181818;stroke-width:0.3;" x1="136.8" x2="183" y1="260.4" y2="260.4"/></g><!--class formateur--><g id="elem_formateur"><rect codeLine="20" fill="#F1F1F1" height="95.8359" id="formateur" rx="1.5" ry="1.5" style="stroke:#181818;stroke-width:0.3;" width="111" x="4.2" y="202.8"/><ellipse cx="38.85" cy="212.4" fill="#ADD1B2" rx="6.6" ry="6.6" style="stroke:#181818;stroke-width:0.6;"/><path d="M40.5094,209.925 Q40.6031,209.7938 40.7156,209.7281 Q40.8281,209.6625 40.9594,209.6625 Q41.1844,209.6625 41.325,209.8219 Q41.4656,209.9719 41.4656,210.3375 L41.4656,211.2094 Q41.4656,211.575 41.325,211.7344 Q41.1844,211.8937 40.9594,211.8937 Q40.7531,211.8937 40.6313,211.7719 Q40.5094,211.6594 40.4438,211.35 Q40.4156,211.1344 40.3031,211.0219 Q40.1062,210.7969 39.7406,210.6656 Q39.375,210.5344 39,210.5344 Q38.5406,210.5344 38.1563,210.7313 Q37.7813,210.9281 37.4812,211.3781 Q37.1906,211.8281 37.1906,212.4469 L37.1906,213.1031 Q37.1906,213.8438 37.725,214.3406 Q38.2594,214.8281 39.2156,214.8281 Q39.7781,214.8281 40.1719,214.6781 Q40.4063,214.5844 40.6594,214.3219 Q40.8188,214.1625 40.9031,214.1156 Q40.9969,214.0688 41.1188,214.0688 Q41.3156,214.0688 41.4656,214.2281 Q41.625,214.3781 41.625,214.5844 Q41.625,214.7906 41.4187,215.0344 Q41.1188,215.3813 40.6406,215.5781 Q39.9938,215.85 39.2156,215.85 Q38.3063,215.85 37.5844,215.475 Q36.9938,215.175 36.5813,214.5375 Q36.1687,213.8906 36.1687,213.1219 L36.1687,212.4281 Q36.1687,211.6313 36.5344,210.9469 Q36.9094,210.2531 37.5656,209.8875 Q38.2219,209.5125 38.9625,209.5125 Q39.4031,209.5125 39.7875,209.6156 Q40.1813,209.7094 40.5094,209.925 Z " fill="#000000"/><text fill="#000000" font-family="sans-serif" font-size="8.4" lengthAdjust="spacing" textLength="36.6" x="51.15" y="215.8781">formateur</text><line style="stroke:#181818;stroke-width:0.3;" x1="4.8" x2="114.6" y1="222" y2="222"/><line style="stroke:#181818;stroke-width:0.3;" x1="4.8" x2="114.6" y1="226.8" y2="226.8"/><ellipse cx="10.8" cy="235.6863" fill="#84BE84" rx="1.8" ry="1.8" style="stroke:#038048;stroke-width:0.6;"/><text fill="#000000" font-family="sans-serif" font-size="8.4" lengthAdjust="spacing" textLength="53.4" x="16.2" y="238.2645">readExaman()</text><ellipse cx="10.8" cy="246.859" fill="#84BE84" rx="1.8" ry="1.8" style="stroke:#038048;stroke-width:0.6;"/><text fill="#000000" font-family="sans-serif" font-size="8.4" lengthAdjust="spacing" textLength="60" x="16.2" y="249.4371">createExaman()</text><ellipse cx="10.8" cy="258.0316" fill="#84BE84" rx="1.8" ry="1.8" style="stroke:#038048;stroke-width:0.6;"/><text fill="#000000" font-family="sans-serif" font-size="8.4" lengthAdjust="spacing" textLength="62.4" x="16.2" y="260.6098">updateExaman()</text><ellipse cx="10.8" cy="269.2043" fill="#84BE84" rx="1.8" ry="1.8" style="stroke:#038048;stroke-width:0.6;"/><text fill="#000000" font-family="sans-serif" font-size="8.4" lengthAdjust="spacing" textLength="56.4" x="16.2" y="271.7824">deleteExaman(</text><ellipse cx="10.8" cy="280.377" fill="#84BE84" rx="1.8" ry="1.8" style="stroke:#038048;stroke-width:0.6;"/><text fill="#000000" font-family="sans-serif" font-size="8.4" lengthAdjust="spacing" textLength="94.8" x="16.2" y="282.9551">assignStudentToPromo()</text><ellipse cx="10.8" cy="291.5496" fill="#84BE84" rx="1.8" ry="1.8" style="stroke:#038048;stroke-width:0.6;"/><text fill="#000000" font-family="sans-serif" font-size="8.4" lengthAdjust="spacing" textLength="95.4" x="16.2" y="294.1277">assignExamanToPromo()</text></g><!--class school--><g id="elem_school"><rect codeLine="30" fill="#F1F1F1" height="140.5266" id="school" rx="1.5" ry="1.5" style="stroke:#181818;stroke-width:0.3;" width="73.8" x="379.2" y="15.3"/><ellipse cx="401.7" cy="24.9" fill="#ADD1B2" rx="6.6" ry="6.6" style="stroke:#181818;stroke-width:0.6;"/><path d="M403.3594,22.425 Q403.4531,22.2938 403.5656,22.2281 Q403.6781,22.1625 403.8094,22.1625 Q404.0344,22.1625 404.175,22.3219 Q404.3156,22.4719 404.3156,22.8375 L404.3156,23.7094 Q404.3156,24.075 404.175,24.2344 Q404.0344,24.3938 403.8094,24.3938 Q403.6031,24.3938 403.4813,24.2719 Q403.3594,24.1594 403.2938,23.85 Q403.2656,23.6344 403.1531,23.5219 Q402.9563,23.2969 402.5906,23.1656 Q402.225,23.0344 401.85,23.0344 Q401.3906,23.0344 401.0062,23.2313 Q400.6312,23.4281 400.3313,23.8781 Q400.0406,24.3281 400.0406,24.9469 L400.0406,25.6031 Q400.0406,26.3438 400.575,26.8406 Q401.1094,27.3281 402.0656,27.3281 Q402.6281,27.3281 403.0219,27.1781 Q403.2562,27.0844 403.5094,26.8219 Q403.6688,26.6625 403.7531,26.6156 Q403.8469,26.5687 403.9688,26.5687 Q404.1656,26.5687 404.3156,26.7281 Q404.475,26.8781 404.475,27.0844 Q404.475,27.2906 404.2688,27.5344 Q403.9688,27.8812 403.4906,28.0781 Q402.8438,28.35 402.0656,28.35 Q401.1563,28.35 400.4344,27.975 Q399.8438,27.675 399.4313,27.0375 Q399.0188,26.3906 399.0188,25.6219 L399.0188,24.9281 Q399.0188,24.1312 399.3844,23.4469 Q399.7594,22.7531 400.4156,22.3875 Q401.0719,22.0125 401.8125,22.0125 Q402.2531,22.0125 402.6375,22.1156 Q403.0313,22.2094 403.3594,22.425 Z " fill="#000000"/><text fill="#000000" font-family="sans-serif" font-size="8.4" lengthAdjust="spacing" textLength="24.6" x="413.1" y="28.3781">school</text><line style="stroke:#181818;stroke-width:0.3;" x1="379.8" x2="452.4" y1="34.5" y2="34.5"/><text fill="#000000" font-family="sans-serif" font-size="8.4" lengthAdjust="spacing" textLength="6.6" x="382.8" y="45.9645">id</text><text fill="#000000" font-family="sans-serif" font-size="8.4" lengthAdjust="spacing" textLength="21" x="382.8" y="57.1371">name</text><text fill="#000000" font-family="sans-serif" font-size="8.4" lengthAdjust="spacing" textLength="30.6" x="382.8" y="68.3098">address</text><text fill="#000000" font-family="sans-serif" font-size="8.4" lengthAdjust="spacing" textLength="12.6" x="382.8" y="79.4824">city</text><text fill="#000000" font-family="sans-serif" font-size="8.4" lengthAdjust="spacing" textLength="28.2" x="382.8" y="90.6551">country</text><line style="stroke:#181818;stroke-width:0.3;" x1="379.8" x2="452.4" y1="95.1633" y2="95.1633"/><ellipse cx="385.8" cy="104.0496" fill="#84BE84" rx="1.8" ry="1.8" style="stroke:#038048;stroke-width:0.6;"/><text fill="#000000" font-family="sans-serif" font-size="8.4" lengthAdjust="spacing" textLength="40.8" x="391.2" y="106.6277">AllSchool()</text><ellipse cx="385.8" cy="115.2223" fill="#84BE84" rx="1.8" ry="1.8" style="stroke:#038048;stroke-width:0.6;"/><text fill="#000000" font-family="sans-serif" font-size="8.4" lengthAdjust="spacing" textLength="49.2" x="391.2" y="117.8004">readSchool()</text><ellipse cx="385.8" cy="126.3949" fill="#84BE84" rx="1.8" ry="1.8" style="stroke:#038048;stroke-width:0.6;"/><text fill="#000000" font-family="sans-serif" font-size="8.4" lengthAdjust="spacing" textLength="55.8" x="391.2" y="128.973">createSchool()</text><ellipse cx="385.8" cy="137.5676" fill="#84BE84" rx="1.8" ry="1.8" style="stroke:#038048;stroke-width:0.6;"/><text fill="#000000" font-family="sans-serif" font-size="8.4" lengthAdjust="spacing" textLength="58.2" x="391.2" y="140.1457">updateSchool()</text><ellipse cx="385.8" cy="148.7402" fill="#84BE84" rx="1.8" ry="1.8" style="stroke:#038048;stroke-width:0.6;"/><text fill="#000000" font-family="sans-serif" font-size="8.4" lengthAdjust="spacing" textLength="55.2" x="391.2" y="151.3184">deleteSchool()</text></g><!--class platformAdmin--><g id="elem_platformAdmin"><rect codeLine="43" fill="#F1F1F1" height="62.318" id="platformAdmin" rx="1.5" ry="1.5" style="stroke:#181818;stroke-width:0.3;" width="130.2" x="204.6" y="219.6"/><ellipse cx="240.15" cy="229.2" fill="#ADD1B2" rx="6.6" ry="6.6" style="stroke:#181818;stroke-width:0.6;"/><path d="M241.8094,226.725 Q241.9031,226.5938 242.0156,226.5281 Q242.1281,226.4625 242.2594,226.4625 Q242.4844,226.4625 242.625,226.6219 Q242.7656,226.7719 242.7656,227.1375 L242.7656,228.0094 Q242.7656,228.375 242.625,228.5344 Q242.4844,228.6938 242.2594,228.6938 Q242.0531,228.6938 241.9312,228.5719 Q241.8094,228.4594 241.7437,228.15 Q241.7156,227.9344 241.6031,227.8219 Q241.4063,227.5969 241.0406,227.4656 Q240.675,227.3344 240.3,227.3344 Q239.8406,227.3344 239.4562,227.5313 Q239.0812,227.7281 238.7813,228.1781 Q238.4906,228.6281 238.4906,229.2469 L238.4906,229.9031 Q238.4906,230.6437 239.025,231.1406 Q239.5594,231.6281 240.5156,231.6281 Q241.0781,231.6281 241.4719,231.4781 Q241.7062,231.3844 241.9594,231.1219 Q242.1187,230.9625 242.2031,230.9156 Q242.2969,230.8687 242.4188,230.8687 Q242.6156,230.8687 242.7656,231.0281 Q242.925,231.1781 242.925,231.3844 Q242.925,231.5906 242.7188,231.8344 Q242.4188,232.1812 241.9406,232.3781 Q241.2938,232.65 240.5156,232.65 Q239.6063,232.65 238.8844,232.275 Q238.2938,231.975 237.8813,231.3375 Q237.4688,230.6906 237.4688,229.9219 L237.4688,229.2281 Q237.4688,228.4313 237.8344,227.7469 Q238.2094,227.0531 238.8656,226.6875 Q239.5219,226.3125 240.2625,226.3125 Q240.7031,226.3125 241.0875,226.4156 Q241.4813,226.5094 241.8094,226.725 Z " fill="#000000"/><text fill="#000000" font-family="sans-serif" font-size="8.4" lengthAdjust="spacing" textLength="54" x="252.45" y="232.6781">platformAdmin</text><line style="stroke:#181818;stroke-width:0.3;" x1="205.2" x2="334.2" y1="238.8" y2="238.8"/><line style="stroke:#181818;stroke-width:0.3;" x1="205.2" x2="334.2" y1="243.6" y2="243.6"/><ellipse cx="211.2" cy="252.4863" fill="#84BE84" rx="1.8" ry="1.8" style="stroke:#038048;stroke-width:0.6;"/><text fill="#000000" font-family="sans-serif" font-size="8.4" lengthAdjust="spacing" textLength="55.2" x="216.6" y="255.0645">CRUDSchool()</text><ellipse cx="211.2" cy="263.659" fill="#84BE84" rx="1.8" ry="1.8" style="stroke:#038048;stroke-width:0.6;"/><text fill="#000000" font-family="sans-serif" font-size="8.4" lengthAdjust="spacing" textLength="78.6" x="216.6" y="266.2371">CRUDSchoolAdmin()</text><ellipse cx="211.2" cy="274.8316" fill="#84BE84" rx="1.8" ry="1.8" style="stroke:#038048;stroke-width:0.6;"/><text fill="#000000" font-family="sans-serif" font-size="8.4" lengthAdjust="spacing" textLength="114.6" x="216.6" y="277.4098">assignschoolAdminToSchool()</text></g><!--class schoolAdmin--><g id="elem_schoolAdmin"><rect codeLine="51" fill="#F1F1F1" height="95.8359" id="schoolAdmin" rx="1.5" ry="1.5" style="stroke:#181818;stroke-width:0.3;" width="120.6" x="355.8" y="202.8"/><ellipse cx="389.55" cy="212.4" fill="#ADD1B2" rx="6.6" ry="6.6" style="stroke:#181818;stroke-width:0.6;"/><path d="M391.2094,209.925 Q391.3031,209.7938 391.4156,209.7281 Q391.5281,209.6625 391.6594,209.6625 Q391.8844,209.6625 392.025,209.8219 Q392.1656,209.9719 392.1656,210.3375 L392.1656,211.2094 Q392.1656,211.575 392.025,211.7344 Q391.8844,211.8937 391.6594,211.8937 Q391.4531,211.8937 391.3313,211.7719 Q391.2094,211.6594 391.1438,211.35 Q391.1156,211.1344 391.0031,211.0219 Q390.8063,210.7969 390.4406,210.6656 Q390.075,210.5344 389.7,210.5344 Q389.2406,210.5344 388.8563,210.7313 Q388.4813,210.9281 388.1813,211.3781 Q387.8906,211.8281 387.8906,212.4469 L387.8906,213.1031 Q387.8906,213.8438 388.425,214.3406 Q388.9594,214.8281 389.9156,214.8281 Q390.4781,214.8281 390.8719,214.6781 Q391.1063,214.5844 391.3594,214.3219 Q391.5188,214.1625 391.6031,214.1156 Q391.6969,214.0688 391.8187,214.0688 Q392.0156,214.0688 392.1656,214.2281 Q392.325,214.3781 392.325,214.5844 Q392.325,214.7906 392.1188,215.0344 Q391.8187,215.3813 391.3406,215.5781 Q390.6937,215.85 389.9156,215.85 Q389.0062,215.85 388.2844,215.475 Q387.6937,215.175 387.2813,214.5375 Q386.8688,213.8906 386.8688,213.1219 L386.8688,212.4281 Q386.8688,211.6313 387.2344,210.9469 Q387.6094,210.2531 388.2656,209.8875 Q388.9219,209.5125 389.6625,209.5125 Q390.1031,209.5125 390.4875,209.6156 Q390.8812,209.7094 391.2094,209.925 Z " fill="#000000"/><text fill="#000000" font-family="sans-serif" font-size="8.4" lengthAdjust="spacing" textLength="48" x="401.85" y="215.8781">schoolAdmin</text><line style="stroke:#181818;stroke-width:0.3;" x1="356.4" x2="475.8" y1="222" y2="222"/><ellipse cx="362.4" cy="230.8863" fill="none" rx="1.8" ry="1.8" style="stroke:#038048;stroke-width:0.6;"/><text fill="#000000" font-family="sans-serif" font-size="8.4" lengthAdjust="spacing" textLength="72.6" x="367.8" y="233.4645">CRUDSchoolAdmin</text><line style="stroke:#181818;stroke-width:0.3;" x1="356.4" x2="475.8" y1="237.9727" y2="237.9727"/><ellipse cx="362.4" cy="246.859" fill="#84BE84" rx="1.8" ry="1.8" style="stroke:#038048;stroke-width:0.6;"/><text fill="#000000" font-family="sans-serif" font-size="8.4" lengthAdjust="spacing" textLength="69" x="367.8" y="249.4371">CRUDFormateur()</text><ellipse cx="362.4" cy="258.0316" fill="#84BE84" rx="1.8" ry="1.8" style="stroke:#038048;stroke-width:0.6;"/><text fill="#000000" font-family="sans-serif" font-size="8.4" lengthAdjust="spacing" textLength="58.8" x="367.8" y="260.6098">CRUDStudent()</text><ellipse cx="362.4" cy="269.2043" fill="#84BE84" rx="1.8" ry="1.8" style="stroke:#038048;stroke-width:0.6;"/><text fill="#000000" font-family="sans-serif" font-size="8.4" lengthAdjust="spacing" textLength="54" x="367.8" y="271.7824">CRUDPromo()</text><ellipse cx="362.4" cy="280.377" fill="#84BE84" rx="1.8" ry="1.8" style="stroke:#038048;stroke-width:0.6;"/><text fill="#000000" font-family="sans-serif" font-size="8.4" lengthAdjust="spacing" textLength="94.8" x="367.8" y="282.9551">assignStudentToPromo()</text><ellipse cx="362.4" cy="291.5496" fill="#84BE84" rx="1.8" ry="1.8" style="stroke:#038048;stroke-width:0.6;"/><text fill="#000000" font-family="sans-serif" font-size="8.4" lengthAdjust="spacing" textLength="105" x="367.8" y="294.1277">assignFormateurToPromo()</text></g><!--class promo--><g id="elem_promo"><rect codeLine="60" fill="#F1F1F1" height="129.3539" id="promo" rx="1.5" ry="1.5" style="stroke:#181818;stroke-width:0.3;" width="72.6" x="31.2" y="371.4"/><ellipse cx="53.43" cy="381" fill="#ADD1B2" rx="6.6" ry="6.6" style="stroke:#181818;stroke-width:0.6;"/><path d="M55.0894,378.525 Q55.1831,378.3938 55.2956,378.3281 Q55.4081,378.2625 55.5394,378.2625 Q55.7644,378.2625 55.905,378.4219 Q56.0456,378.5719 56.0456,378.9375 L56.0456,379.8094 Q56.0456,380.175 55.905,380.3344 Q55.7644,380.4938 55.5394,380.4938 Q55.3331,380.4938 55.2113,380.3719 Q55.0894,380.2594 55.0238,379.95 Q54.9956,379.7344 54.8831,379.6219 Q54.6862,379.3969 54.3206,379.2656 Q53.955,379.1344 53.58,379.1344 Q53.1206,379.1344 52.7363,379.3313 Q52.3613,379.5281 52.0612,379.9781 Q51.7706,380.4281 51.7706,381.0469 L51.7706,381.7031 Q51.7706,382.4437 52.305,382.9406 Q52.8394,383.4281 53.7956,383.4281 Q54.3581,383.4281 54.7519,383.2781 Q54.9863,383.1844 55.2394,382.9219 Q55.3988,382.7625 55.4831,382.7156 Q55.5769,382.6688 55.6988,382.6688 Q55.8956,382.6688 56.0456,382.8281 Q56.205,382.9781 56.205,383.1844 Q56.205,383.3906 55.9987,383.6344 Q55.6988,383.9813 55.2206,384.1781 Q54.5738,384.45 53.7956,384.45 Q52.8863,384.45 52.1644,384.075 Q51.5738,383.775 51.1612,383.1375 Q50.7487,382.4906 50.7487,381.7219 L50.7487,381.0281 Q50.7487,380.2313 51.1144,379.5469 Q51.4894,378.8531 52.1456,378.4875 Q52.8019,378.1125 53.5425,378.1125 Q53.9831,378.1125 54.3675,378.2156 Q54.7613,378.3094 55.0894,378.525 Z " fill="#000000"/><text fill="#000000" font-family="sans-serif" font-size="8.4" lengthAdjust="spacing" textLength="24" x="64.77" y="384.4781">promo</text><line style="stroke:#181818;stroke-width:0.3;" x1="31.8" x2="103.2" y1="390.6" y2="390.6"/><text fill="#000000" font-family="sans-serif" font-size="8.4" lengthAdjust="spacing" textLength="6.6" x="34.8" y="402.0645">id</text><text fill="#000000" font-family="sans-serif" font-size="8.4" lengthAdjust="spacing" textLength="21" x="34.8" y="413.2371">name</text><text fill="#000000" font-family="sans-serif" font-size="8.4" lengthAdjust="spacing" textLength="38.4" x="34.8" y="424.4098">start_date</text><text fill="#000000" font-family="sans-serif" font-size="8.4" lengthAdjust="spacing" textLength="36" x="34.8" y="435.5824">end_date</text><line style="stroke:#181818;stroke-width:0.3;" x1="31.8" x2="103.2" y1="440.0906" y2="440.0906"/><ellipse cx="37.8" cy="448.977" fill="#84BE84" rx="1.8" ry="1.8" style="stroke:#038048;stroke-width:0.6;"/><text fill="#000000" font-family="sans-serif" font-size="8.4" lengthAdjust="spacing" textLength="39.6" x="43.2" y="451.5551">AllPromo()</text><ellipse cx="37.8" cy="460.1496" fill="#84BE84" rx="1.8" ry="1.8" style="stroke:#038048;stroke-width:0.6;"/><text fill="#000000" font-family="sans-serif" font-size="8.4" lengthAdjust="spacing" textLength="48" x="43.2" y="462.7277">readPromo()</text><ellipse cx="37.8" cy="471.3223" fill="#84BE84" rx="1.8" ry="1.8" style="stroke:#038048;stroke-width:0.6;"/><text fill="#000000" font-family="sans-serif" font-size="8.4" lengthAdjust="spacing" textLength="54.6" x="43.2" y="473.9004">createPromo()</text><ellipse cx="37.8" cy="482.4949" fill="#84BE84" rx="1.8" ry="1.8" style="stroke:#038048;stroke-width:0.6;"/><text fill="#000000" font-family="sans-serif" font-size="8.4" lengthAdjust="spacing" textLength="57" x="43.2" y="485.073">updatePromo()</text><ellipse cx="37.8" cy="493.6676" fill="#84BE84" rx="1.8" ry="1.8" style="stroke:#038048;stroke-width:0.6;"/><text fill="#000000" font-family="sans-serif" font-size="8.4" lengthAdjust="spacing" textLength="54" x="43.2" y="496.2457">deletePromo()</text></g><!--class examan--><g id="elem_examan"><rect codeLine="72" fill="#F1F1F1" height="140.5266" id="examan" rx="1.5" ry="1.5" style="stroke:#181818;stroke-width:0.3;" width="78.6" x="28.2" y="573.6"/><ellipse cx="50.7" cy="583.2" fill="#ADD1B2" rx="6.6" ry="6.6" style="stroke:#181818;stroke-width:0.6;"/><path d="M52.3594,580.725 Q52.4531,580.5938 52.5656,580.5281 Q52.6781,580.4625 52.8094,580.4625 Q53.0344,580.4625 53.175,580.6219 Q53.3156,580.7719 53.3156,581.1375 L53.3156,582.0094 Q53.3156,582.375 53.175,582.5344 Q53.0344,582.6938 52.8094,582.6938 Q52.6031,582.6938 52.4812,582.5719 Q52.3594,582.4594 52.2937,582.15 Q52.2656,581.9344 52.1531,581.8219 Q51.9563,581.5969 51.5906,581.4656 Q51.225,581.3344 50.85,581.3344 Q50.3906,581.3344 50.0063,581.5313 Q49.6313,581.7281 49.3313,582.1781 Q49.0406,582.6281 49.0406,583.2469 L49.0406,583.9031 Q49.0406,584.6438 49.575,585.1406 Q50.1094,585.6281 51.0656,585.6281 Q51.6281,585.6281 52.0219,585.4781 Q52.2563,585.3844 52.5094,585.1219 Q52.6687,584.9625 52.7531,584.9156 Q52.8469,584.8688 52.9688,584.8688 Q53.1656,584.8688 53.3156,585.0281 Q53.475,585.1781 53.475,585.3844 Q53.475,585.5906 53.2688,585.8344 Q52.9688,586.1813 52.4906,586.3781 Q51.8438,586.65 51.0656,586.65 Q50.1563,586.65 49.4344,586.275 Q48.8438,585.975 48.4313,585.3375 Q48.0188,584.6906 48.0188,583.9219 L48.0188,583.2281 Q48.0188,582.4313 48.3844,581.7469 Q48.7594,581.0531 49.4156,580.6875 Q50.0719,580.3125 50.8125,580.3125 Q51.2531,580.3125 51.6375,580.4156 Q52.0313,580.5094 52.3594,580.725 Z " fill="#000000"/><text fill="#000000" font-family="sans-serif" font-size="8.4" lengthAdjust="spacing" textLength="29.4" x="62.1" y="586.6781">examan</text><line style="stroke:#181818;stroke-width:0.3;" x1="28.8" x2="106.2" y1="592.8" y2="592.8"/><text fill="#000000" font-family="sans-serif" font-size="8.4" lengthAdjust="spacing" textLength="6.6" x="31.8" y="604.2645">id</text><text fill="#000000" font-family="sans-serif" font-size="8.4" lengthAdjust="spacing" textLength="13.2" x="31.8" y="615.4371">title</text><text fill="#000000" font-family="sans-serif" font-size="8.4" lengthAdjust="spacing" textLength="41.4" x="31.8" y="626.6098">description</text><text fill="#000000" font-family="sans-serif" font-size="8.4" lengthAdjust="spacing" textLength="71.4" x="31.8" y="637.7824">projectBackground</text><text fill="#000000" font-family="sans-serif" font-size="8.4" lengthAdjust="spacing" textLength="33.6" x="31.8" y="648.9551">Deadline</text><line style="stroke:#181818;stroke-width:0.3;" x1="28.8" x2="106.2" y1="653.4633" y2="653.4633"/><ellipse cx="34.8" cy="662.3496" fill="#84BE84" rx="1.8" ry="1.8" style="stroke:#038048;stroke-width:0.6;"/><text fill="#000000" font-family="sans-serif" font-size="8.4" lengthAdjust="spacing" textLength="45" x="40.2" y="664.9277">AllExaman()</text><ellipse cx="34.8" cy="673.5223" fill="#84BE84" rx="1.8" ry="1.8" style="stroke:#038048;stroke-width:0.6;"/><text fill="#000000" font-family="sans-serif" font-size="8.4" lengthAdjust="spacing" textLength="53.4" x="40.2" y="676.1004">readExaman()</text><ellipse cx="34.8" cy="684.6949" fill="#84BE84" rx="1.8" ry="1.8" style="stroke:#038048;stroke-width:0.6;"/><text fill="#000000" font-family="sans-serif" font-size="8.4" lengthAdjust="spacing" textLength="60" x="40.2" y="687.273">createExaman()</text><ellipse cx="34.8" cy="695.8676" fill="#84BE84" rx="1.8" ry="1.8" style="stroke:#038048;stroke-width:0.6;"/><text fill="#000000" font-family="sans-serif" font-size="8.4" lengthAdjust="spacing" textLength="62.4" x="40.2" y="698.4457">updateExaman()</text><ellipse cx="34.8" cy="707.0402" fill="#84BE84" rx="1.8" ry="1.8" style="stroke:#038048;stroke-width:0.6;"/><text fill="#000000" font-family="sans-serif" font-size="8.4" lengthAdjust="spacing" textLength="59.4" x="40.2" y="709.6184">deleteExaman()</text></g><!--class Notification--><g id="elem_Notification"><rect codeLine="88" fill="#F1F1F1" height="73.4906" id="Notification" rx="1.5" ry="1.5" style="stroke:#181818;stroke-width:0.3;" width="81.6" x="230.1" y="399.6"/><ellipse cx="248.55" cy="409.2" fill="#ADD1B2" rx="6.6" ry="6.6" style="stroke:#181818;stroke-width:0.6;"/><path d="M250.2094,406.725 Q250.3031,406.5938 250.4156,406.5281 Q250.5281,406.4625 250.6594,406.4625 Q250.8844,406.4625 251.025,406.6219 Q251.1656,406.7719 251.1656,407.1375 L251.1656,408.0094 Q251.1656,408.375 251.025,408.5344 Q250.8844,408.6937 250.6594,408.6937 Q250.4531,408.6937 250.3312,408.5719 Q250.2094,408.4594 250.1437,408.15 Q250.1156,407.9344 250.0031,407.8219 Q249.8062,407.5969 249.4406,407.4656 Q249.075,407.3344 248.7,407.3344 Q248.2406,407.3344 247.8563,407.5313 Q247.4813,407.7281 247.1812,408.1781 Q246.8906,408.6281 246.8906,409.2469 L246.8906,409.9031 Q246.8906,410.6438 247.425,411.1406 Q247.9594,411.6281 248.9156,411.6281 Q249.4781,411.6281 249.8719,411.4781 Q250.1063,411.3844 250.3594,411.1219 Q250.5187,410.9625 250.6031,410.9156 Q250.6969,410.8688 250.8188,410.8688 Q251.0156,410.8688 251.1656,411.0281 Q251.325,411.1781 251.325,411.3844 Q251.325,411.5906 251.1187,411.8344 Q250.8188,412.1813 250.3406,412.3781 Q249.6938,412.65 248.9156,412.65 Q248.0063,412.65 247.2844,412.275 Q246.6938,411.975 246.2813,411.3375 Q245.8687,410.6906 245.8687,409.9219 L245.8687,409.2281 Q245.8687,408.4313 246.2344,407.7469 Q246.6094,407.0531 247.2656,406.6875 Q247.9219,406.3125 248.6625,406.3125 Q249.1031,406.3125 249.4875,406.4156 Q249.8813,406.5094 250.2094,406.725 Z " fill="#000000"/><text fill="#000000" font-family="sans-serif" font-size="8.4" lengthAdjust="spacing" textLength="41.4" x="259.05" y="412.6781">Notification</text><line style="stroke:#181818;stroke-width:0.3;" x1="230.7" x2="311.1" y1="418.8" y2="418.8"/><text fill="#000000" font-family="sans-serif" font-size="8.4" lengthAdjust="spacing" textLength="6.6" x="233.7" y="430.2645">id</text><text fill="#000000" font-family="sans-serif" font-size="8.4" lengthAdjust="spacing" textLength="40.8" x="233.7" y="441.4371">notification</text><text fill="#000000" font-family="sans-serif" font-size="8.4" lengthAdjust="spacing" textLength="45.6" x="233.7" y="452.6098">Destinataire</text><line style="stroke:#181818;stroke-width:0.3;" x1="230.7" x2="311.1" y1="457.118" y2="457.118"/><ellipse cx="236.7" cy="466.0043" fill="#84BE84" rx="1.8" ry="1.8" style="stroke:#038048;stroke-width:0.6;"/><text fill="#000000" font-family="sans-serif" font-size="8.4" lengthAdjust="spacing" textLength="66" x="242.1" y="468.5824">sendNotification()</text></g><!--class message--><g id="elem_message"><rect codeLine="95" fill="#F1F1F1" height="73.4906" id="message" rx="1.5" ry="1.5" style="stroke:#181818;stroke-width:0.3;" width="74.4" x="134.7" y="399.6"/><ellipse cx="153.15" cy="409.2" fill="#ADD1B2" rx="6.6" ry="6.6" style="stroke:#181818;stroke-width:0.6;"/><path d="M154.8094,406.725 Q154.9031,406.5938 155.0156,406.5281 Q155.1281,406.4625 155.2594,406.4625 Q155.4844,406.4625 155.625,406.6219 Q155.7656,406.7719 155.7656,407.1375 L155.7656,408.0094 Q155.7656,408.375 155.625,408.5344 Q155.4844,408.6937 155.2594,408.6937 Q155.0531,408.6937 154.9313,408.5719 Q154.8094,408.4594 154.7438,408.15 Q154.7156,407.9344 154.6031,407.8219 Q154.4063,407.5969 154.0406,407.4656 Q153.675,407.3344 153.3,407.3344 Q152.8406,407.3344 152.4562,407.5313 Q152.0812,407.7281 151.7813,408.1781 Q151.4906,408.6281 151.4906,409.2469 L151.4906,409.9031 Q151.4906,410.6438 152.025,411.1406 Q152.5594,411.6281 153.5156,411.6281 Q154.0781,411.6281 154.4719,411.4781 Q154.7062,411.3844 154.9594,411.1219 Q155.1188,410.9625 155.2031,410.9156 Q155.2969,410.8688 155.4188,410.8688 Q155.6156,410.8688 155.7656,411.0281 Q155.925,411.1781 155.925,411.3844 Q155.925,411.5906 155.7188,411.8344 Q155.4188,412.1813 154.9406,412.3781 Q154.2938,412.65 153.5156,412.65 Q152.6063,412.65 151.8844,412.275 Q151.2938,411.975 150.8813,411.3375 Q150.4688,410.6906 150.4688,409.9219 L150.4688,409.2281 Q150.4688,408.4313 150.8344,407.7469 Q151.2094,407.0531 151.8656,406.6875 Q152.5219,406.3125 153.2625,406.3125 Q153.7031,406.3125 154.0875,406.4156 Q154.4813,406.5094 154.8094,406.725 Z " fill="#000000"/><text fill="#000000" font-family="sans-serif" font-size="8.4" lengthAdjust="spacing" textLength="34.2" x="163.65" y="412.6781">message</text><line style="stroke:#181818;stroke-width:0.3;" x1="135.3" x2="208.5" y1="418.8" y2="418.8"/><text fill="#000000" font-family="sans-serif" font-size="8.4" lengthAdjust="spacing" textLength="6.6" x="138.3" y="430.2645">id</text><text fill="#000000" font-family="sans-serif" font-size="8.4" lengthAdjust="spacing" textLength="34.2" x="138.3" y="441.4371">Message</text><line style="stroke:#181818;stroke-width:0.3;" x1="135.3" x2="208.5" y1="445.9453" y2="445.9453"/><ellipse cx="141.3" cy="454.8316" fill="#84BE84" rx="1.8" ry="1.8" style="stroke:#038048;stroke-width:0.6;"/><text fill="#000000" font-family="sans-serif" font-size="8.4" lengthAdjust="spacing" textLength="58.8" x="146.7" y="457.4098">sendMessage()</text><ellipse cx="141.3" cy="466.0043" fill="#84BE84" rx="1.8" ry="1.8" style="stroke:#038048;stroke-width:0.6;"/><text fill="#000000" font-family="sans-serif" font-size="8.4" lengthAdjust="spacing" textLength="57.6" x="146.7" y="468.5824">readMessage()</text></g><!--reverse link user to student--><g id="link_user_student"><path d="M188.694,164.598 C179.436,192.12 170.004,220.17 164.562,236.34 " fill="none" id="user-backto-student" style="stroke:#181818;stroke-width:0.6;"/><polygon fill="none" points="184.764,163.116,192.57,153.084,192.726,165.798,184.764,163.116" style="stroke:#181818;stroke-width:0.6;"/></g><!--reverse link user to formateur--><g id="link_user_formateur"><path d="M184.23,118.698 C161.472,142.734 130.164,175.794 104.634,202.752 " fill="none" id="user-backto-formateur" style="stroke:#181818;stroke-width:0.6;"/><polygon fill="none" points="181.2,115.788,192.504,109.962,187.302,121.56,181.2,115.788" style="stroke:#181818;stroke-width:0.6;"/></g><!--reverse link user to platformAdmin--><g id="link_user_platformAdmin"><path d="M241.488,165.408 C247.902,184.692 254.388,204.174 259.518,219.594 " fill="none" id="user-backto-platformAdmin" style="stroke:#181818;stroke-width:0.6;"/><polygon fill="none" points="237.426,166.506,237.624,153.792,245.394,163.854,237.426,166.506" style="stroke:#181818;stroke-width:0.6;"/></g><!--reverse link user to schoolAdmin--><g id="link_user_schoolAdmin"><path d="M247.242,112.338 C276.996,136.632 321.954,173.334 357.996,202.764 " fill="none" id="user-backto-schoolAdmin" style="stroke:#181818;stroke-width:0.6;"/><polygon fill="none" points="244.404,115.446,237.768,104.604,249.72,108.942,244.404,115.446" style="stroke:#181818;stroke-width:0.6;"/></g><!--link student to promo--><g id="link_student_promo"><path codeLine="103" d="M152.952,265.242 C141.75,287.586 118.992,332.952 99.78,371.256 " fill="none" id="student-promo" style="stroke:#181818;stroke-width:0.6;"/><text fill="#000000" font-family="sans-serif" font-size="7.8" lengthAdjust="spacing" textLength="9.6" x="140.4884" y="278.4436">1.*</text><text fill="#000000" font-family="sans-serif" font-size="7.8" lengthAdjust="spacing" textLength="9.6" x="92.1122" y="364.5628">1.*</text></g><!--link student to Notification--><g id="link_student_Notification"><path codeLine="104" d="M168.456,265.206 C174.894,275.076 184.272,288.402 194.1,298.8 C211.554,317.262 224.148,313.836 238.5,334.8 C251.736,354.138 259.824,379.218 264.612,399.522 " fill="none" id="student-Notification" style="stroke:#181818;stroke-width:0.6;"/><text fill="#000000" font-family="sans-serif" font-size="7.8" lengthAdjust="spacing" textLength="4.2" x="165.8297" y="278.3989">1</text><text fill="#000000" font-family="sans-serif" font-size="7.8" lengthAdjust="spacing" textLength="9.6" x="253.7299" y="392.9017">1.*</text></g><!--link student to message--><g id="link_student_message"><path codeLine="105" d="M160.8,265.242 C162.642,293.484 166.878,358.518 169.554,399.564 " fill="none" id="student-message" style="stroke:#181818;stroke-width:0.6;"/><text fill="#000000" font-family="sans-serif" font-size="7.8" lengthAdjust="spacing" textLength="4.2" x="156.3075" y="278.4436">1</text><text fill="#000000" font-family="sans-serif" font-size="7.8" lengthAdjust="spacing" textLength="9.6" x="159.1277" y="392.9486">1.*</text></g><!--link formateur to Notification--><g id="link_formateur_Notification"><path codeLine="106" d="M115.386,292.218 C157.656,323.37 210.036,362.43 219.3,371.4 C228.138,379.956 236.856,390.006 244.548,399.582 " fill="none" id="formateur-Notification" style="stroke:#181818;stroke-width:0.6;"/><text fill="#000000" font-family="sans-serif" font-size="7.8" lengthAdjust="spacing" textLength="4.2" x="119.9908" y="293.3426">1</text><text fill="#000000" font-family="sans-serif" font-size="7.8" lengthAdjust="spacing" textLength="9.6" x="231.3461" y="392.9686">1.*</text></g><!--link formateur to message--><g id="link_formateur_message"><path codeLine="107" d="M88.596,298.836 C107.682,330.174 132.318,370.62 149.838,399.378 " fill="none" id="formateur-message" style="stroke:#181818;stroke-width:0.6;"/><text fill="#000000" font-family="sans-serif" font-size="7.8" lengthAdjust="spacing" textLength="4.2" x="86.6988" y="311.8339">1</text><text fill="#000000" font-family="sans-serif" font-size="7.8" lengthAdjust="spacing" textLength="9.6" x="137.1321" y="392.7411">1.*</text></g><!--link schoolAdmin to Notification--><g id="link_schoolAdmin_Notification"><path codeLine="108" d="M384.51,298.926 C376.116,311.01 366.882,323.844 357.9,335.4 C340.872,357.324 320.598,380.808 303.906,399.528 " fill="none" id="schoolAdmin-Notification" style="stroke:#181818;stroke-width:0.6;"/><text fill="#000000" font-family="sans-serif" font-size="7.8" lengthAdjust="spacing" textLength="4.2" x="377.4148" y="311.9317">1</text><text fill="#000000" font-family="sans-serif" font-size="7.8" lengthAdjust="spacing" textLength="9.6" x="297.5673" y="392.9084">1.*</text></g><!--link schoolAdmin to message--><g id="link_schoolAdmin_message"><path codeLine="109" d="M355.638,292.266 C352.158,294.498 348.69,296.688 345.3,298.8 C290.418,332.928 267.516,328.356 219.3,371.4 C210.156,379.566 201.666,389.76 194.472,399.6 " fill="none" id="schoolAdmin-message" style="stroke:#181818;stroke-width:0.6;"/><text fill="#000000" font-family="sans-serif" font-size="7.8" lengthAdjust="spacing" textLength="4.2" x="346.8436" y="293.1661">1</text><text fill="#000000" font-family="sans-serif" font-size="7.8" lengthAdjust="spacing" textLength="9.6" x="187.038" y="392.7277">1.*</text></g><!--link formateur to promo--><g id="link_formateur_promo"><path codeLine="110" d="M61.71,298.836 C62.646,320.904 63.768,347.478 64.776,371.316 " fill="none" id="formateur-promo" style="stroke:#181818;stroke-width:0.6;"/><text fill="#000000" font-family="sans-serif" font-size="7.8" lengthAdjust="spacing" textLength="4.2" x="57.5023" y="311.8339">1</text><text fill="#000000" font-family="sans-serif" font-size="7.8" lengthAdjust="spacing" textLength="9.6" x="54.647" y="364.627">1.*</text></g><!--link promo to examan--><g id="link_promo_examan"><path codeLine="111" d="M67.5,501.258 C67.5,524.202 67.5,550.14 67.5,573.504 " fill="none" id="promo-examan" style="stroke:#181818;stroke-width:0.6;"/><text fill="#000000" font-family="sans-serif" font-size="7.8" lengthAdjust="spacing" textLength="4.2" x="63.172" y="513.9631">1</text><text fill="#000000" font-family="sans-serif" font-size="7.8" lengthAdjust="spacing" textLength="9.6" x="57.5925" y="566.8925">1.*</text></g><!--link school to schoolAdmin--><g id="link_school_schoolAdmin"><path codeLine="112" d="M416.1,155.934 C416.1,171.72 416.1,188.13 416.1,202.74 " fill="none" id="school-schoolAdmin" style="stroke:#181818;stroke-width:0.6;"/><text fill="#000000" font-family="sans-serif" font-size="7.8" lengthAdjust="spacing" textLength="4.2" x="411.772" y="168.9553">1</text><text fill="#000000" font-family="sans-serif" font-size="7.8" lengthAdjust="spacing" textLength="9.6" x="406.0575" y="196.0719">1.*</text></g><!--SRC=[ZLJ9JiGm3BttAoekR1eaFc7ORY34SaPHafa9f4cLk0A4-7USE6tCR71fdMV7VdvsAws8iHsY3krNqxP6uMDXGWGdEeqskaVpkXF6uhl76-y-fCX-vS7JswMGkL91nuYMDF2PNdvm499rQltIkAFZOle1qFvk6fa9H1YKTj3g3z1EJOHgmCA7Je0Umde8fWjQgEiFqOcINY80cYD3hzOGfQsUa0HW4RDqZyJZoTy7ttaA9G-5LWVZBbVUsofVaKliqM9kxME-HHLI0_nC3N246k08DJ0X4vlU2aXYpLLdt1QnBX-UhtYUUiutUCknmaz-kfDA_UfyNwMRSMoi64bS0IRr6fd_p6MgK7rLYmHi32Q22F2IzCG3SXxDD1MMFWs57Mac3A2HC80cia52vyMfBC20JUMKZZAO7enFVIBLLotXGiYtPS15IP5NoC2Q_64HExR0csk_RV6thVxwycUgqqZlF9Y5aIBHOienD1EBO9m0OK8MBgAA_29llyDlG2nrpNLBm7Yl7Alc5S0SXq7Rd38suo_YuFpivA2TpMR5oaDcNkxZf7Q457vD_S7iIR4hQ4p2FuXzJ7Q6_SM6cgMz_ksXDIkfYw-uM3cSymy0]--></g></svg>